<svg xmlns="http://www.w3.org/2000/svg" viewBox="0 0 256 256" role="img" aria-labelledby="title">
  <title>汉字书写评分</title>
  <defs>
    <linearGradient id="bg" x1="32" x2="224" y1="24" y2="232" gradientUnits="userSpaceOnUse">
      <stop offset="0" stop-color="#0f172a" />
      <stop offset="1" stop-color="#2563eb" />
    </linearGradient>
  </defs>
  <rect width="256" height="256" rx="56" fill="url(#bg)" />
  <path
    d="M78 72h100c10 0 18 8 18 18v76c0 10-8 18-18 18H78c-10 0-18-8-18-18V90c0-10 8-18 18-18Z"
    fill="#f8fafc"
    opacity="0.96"
  />
  <path
    d="M92 96h72M92 128h72M92 160h48"
    fill="none"
    stroke="#cbd5e1"
    stroke-linecap="round"
    stroke-width="10"
  />
  <path
    d="M160 88c18 16 26 30 26 44 0 24-18 40-44 40-13 0-24-4-32-12"
    fill="none"
    stroke="#2563eb"
    stroke-linecap="round"
    stroke-linejoin="round"
    stroke-width="14"
  />
  <path
    d="M146 86l20 2-4 20"
    fill="none"
    stroke="#2563eb"
    stroke-linecap="round"
    stroke-linejoin="round"
    stroke-width="14"
  />
</svg>
